# xmcd
#
# Track frame offsets:
#  150
#  17958
#  31033
#  49287
#  61709
#  76666
#  95481
#  113493
#  126488
#  144005
#  162888
#  180021
#  197589
#  214189
#
# Disc length: 3023 seconds
#
# Revision: 0
# Processed by: cddbd v1.5.1PL0 Copyright (c) Steve Scherf et al.
# Submitted via: Collectorz.com_Music_Collector 6.9
#
DISCID=a70bcd0e
DTITLE=Al Hensley - The Big Easy Allstars - Spoonful Of Soul
DYEAR=2005
DGENRE=Blues
TTITLE0=Coconut Groove
TTITLE1=Black Jack Boogaloo
TTITLE2=Blues For Satie
TTITLE3=Rambler On The Road
TTITLE4=Turkey Jerky
TTITLE5=Too Late
TTITLE6=Voodoo Strut
TTITLE7=Jelly Roll Shuffle
TTITLE8=The Loop
TTITLE9=Kitty May
TTITLE10=G-Man vs The Banana Republic
TTITLE11=Wise Fool
TTITLE12=Spoonful Of Soul
TTITLE13=Rambler On The Road #2
EXTD=
EXTT0=
EXTT1=
EXTT2=
EXTT3=
EXTT4=
EXTT5=
EXTT6=
EXTT7=
EXTT8=
EXTT9=
EXTT10=
EXTT11=
EXTT12=
EXTT13=
PLAYORDER=
